<?xml version="1.0" encoding="UTF-8" standalone="no"?><!DOCTYPE svg PUBLIC "-//W3C//DTD SVG 1.1//EN" "http://www.w3.org/Graphics/SVG/1.1/DTD/svg11.dtd"><svg width="100%" height="100%" viewBox="0 0 2134 2134" version="1.1" xmlns="http://www.w3.org/2000/svg" xmlns:xlink="http://www.w3.org/1999/xlink" xml:space="preserve" xmlns:serif="http://www.serif.com/" style="fill-rule:evenodd;clip-rule:evenodd;stroke-linejoin:round;stroke-miterlimit:2;"><g><g><path d="M1964.93,1948.34l-207.454,-321.575l207.454,-321.309c7.279,-11.279 6.559,-25.946 -1.8,-36.45l-102.816,-129.266c-5.596,-7.034 -14.9,-11.817 -24.492,-11.817l-135.6,-0c-17.284,-0 -31.292,14.008 -31.292,31.292c0,17.279 14.004,31.291 31.292,31.291l78.175,0l-43.021,66.688l-216.325,-0l-43.021,-66.688l78.175,0c17.284,0 31.292,-14.008 31.292,-31.291c-0,-17.28 -14.004,-31.292 -31.292,-31.292l-135.6,-0c-9,-0 -18.354,4.196 -24.375,11.687l-336.85,-130.45l0,-21.57l136.538,-0c43.846,-0 79.512,-35.671 79.512,-79.513l0,-226.558c16.917,-22.596 26.288,-50.175 26.288,-79.079c-0,-28.892 -9.371,-56.471 -26.288,-79.063l0,-128.333c0.008,-217.829 -177.204,-395.042 -395.033,-395.042c-217.817,0 -395.029,177.213 -395.029,395.038l-0,513.041c-0,43.846 35.67,79.513 79.516,79.513l136.109,-0l-0,21.583c-0.371,0.142 -371.109,143.867 -371.475,144.021c-6.7,2.754 -164.117,69.579 -164.117,253.412l-0,647.213c-0,43.846 35.671,79.512 79.521,79.512l570.529,0c17.283,0 31.292,-14.008 31.292,-31.291c-0,-17.284 -14.005,-31.292 -31.292,-31.292l-341.154,0l-0,-478.283c-0,-17.279 -14.004,-31.292 -31.292,-31.292c-17.287,0 -31.292,14.008 -31.292,31.292l0,135.241c-5.462,-1.187 -11.116,-1.858 -16.933,-1.858l-166.792,-0l0,-319.246c0,-139.742 117.93,-192.367 125.146,-195.454l222.8,-86.379l97.884,196.171c14.941,29.937 53.137,39.57 80.5,20.141l125.983,-89.475l125.979,89.475c27.404,19.459 65.575,9.763 80.5,-20.141l97.879,-196.163l170.763,66.129l-62.113,78.092c-8.358,10.504 -9.079,25.171 -1.8,36.45l207.45,321.304l-63.925,99.088l-69.016,-0c-5.817,-0 -11.471,0.666 -16.934,1.858l0,-135.242c0,-17.279 -14.004,-31.291 -31.291,-31.291c-17.284,-0 -31.292,14.008 -31.292,31.291l-0,478.284l-325.042,-0c-17.283,-0 -31.291,14.008 -31.291,31.291c-0,17.279 14.004,31.292 31.291,31.292l554.405,-0c44.191,-0 79.512,-36.021 79.512,-79.513l-0,-172.9l33.829,-52.4l145.325,225.08c8.708,13.483 26.2,18.2 40.504,10.9l139.813,-71.321c16.512,-8.417 22.112,-29.275 12.083,-44.834Zm-1572.15,-159.912c9.338,0.004 16.934,7.6 16.934,16.937l-0,265.388l-166.792,-0c-9.338,-0 -16.938,-7.596 -16.938,-16.933l0,-265.392l166.796,-0Zm801.142,-863.417l-131.617,0c57.396,-45.225 98.163,-112.621 108.513,-189.887c12.858,-0.609 27.054,-3.188 40.029,-7.746l-0,180.7l0.004,-0c0.004,9.337 -7.587,16.933 -16.929,16.933Zm43.217,-322.571c-0,34.721 -25.85,65.371 -63.65,69.78l-0,-139.542c37.1,4.229 63.65,34.5 63.65,69.762Zm-674.255,322.575c-9.337,-0.004 -16.937,-7.6 -16.937,-16.937l-0,-513.038c0.004,-183.316 149.137,-332.454 332.446,-332.454c183.312,0 332.458,149.138 332.458,332.454l0,82.484c-10.821,-3.817 -24.962,-6.829 -37.796,-7.625c-2.737,-21.884 -18.225,-39.767 -38.854,-46.017c-0.004,0 -0.008,0 -0.008,-0.004c-53.117,-16.133 -104.254,-50.079 -143.567,-90.629c-22.037,-22.725 -59.629,-22.8 -81.433,2.046c-75.221,85.795 -181.071,172.662 -289.688,212.762c-21.662,7.996 -36.216,28.883 -36.216,51.975l-0,96.221c-0,92.787 43.475,175.912 111.262,228.758l-131.667,0l0,0.004Zm82.992,-228.762l0,-91.254c114.554,-43.538 224.288,-131.992 305.267,-222.679c48.912,48.737 105.946,82.45 159.771,99.837l-0,214.096c-0,124.008 -101.038,228.758 -228.759,228.758c-147.429,0 -236.279,-115.908 -236.279,-228.758Zm77.779,588.433l-91.112,-182.6l87.829,-34.016l112.596,138.983l-109.313,77.633Zm37.921,-265.416l0,-55.196c70.192,29.112 156.429,33.158 233.229,0.841l0,54.6c-72.675,89.717 -60.321,74.459 -116.512,143.821l-116.717,-144.066Zm271.35,265.416l-109.437,-77.725l112.566,-138.95l87.984,34.075l-91.113,182.6Zm662.079,35.088l-67.791,105.079l-67.792,-105.079l135.583,-0Zm-340.745,-29.392l61.691,-77.558c18.238,28.271 158.442,245.591 174.029,269.746l-55.791,86.483l-179.929,-278.671Zm-7.175,514.983c-0,-9.337 7.591,-16.933 16.933,-16.933l28.646,0l-45.579,70.65l-0,-53.717Zm183.72,248.455c0,9.341 -7.725,16.933 -16.933,16.933l-166.787,-0l-0,-54.358l94.304,48.104c14.441,7.362 31.975,2.321 40.504,-10.9l48.912,-75.754l0,75.975Zm-86.154,-57.909l-83.792,-42.741c235.746,-365.409 211.121,-327.25 477.621,-740.346l61.688,77.562c-19.942,30.892 -433.021,670.684 -455.517,705.525Zm365.129,0l-145.321,-225.079c22.892,-35.462 15.059,-23.321 55.759,-86.362l173.35,268.704l-83.788,42.737Z" style="fill:#0097db;fill-rule:nonzero;"/></g></g></svg>