<?xml version="1.0" encoding="UTF-8" standalone="no"?><!DOCTYPE svg PUBLIC "-//W3C//DTD SVG 1.1//EN" "http://www.w3.org/Graphics/SVG/1.1/DTD/svg11.dtd"><svg width="100%" height="100%" viewBox="0 0 2134 2134" version="1.1" xmlns="http://www.w3.org/2000/svg" xmlns:xlink="http://www.w3.org/1999/xlink" xml:space="preserve" xmlns:serif="http://www.serif.com/" style="fill-rule:evenodd;clip-rule:evenodd;stroke-linejoin:round;stroke-miterlimit:2;"><g><g><path d="M1962.53,792.171l-163.021,-129.967l0,-630.942c0,-17.266 -13.996,-31.262 -31.262,-31.262c-17.267,0 -31.263,13.992 -31.263,31.263l0,80.033l-246.483,138.117c-15.063,8.441 -20.434,27.491 -11.992,42.554c8.442,15.058 27.488,20.421 42.554,11.991l215.925,-120.987l0,1415.42l-580.575,-325.321l0,-309.45c0,-17.267 -13.996,-31.262 -31.262,-31.262c-17.267,-0 -31.263,13.991 -31.263,31.262l0,274.417l-249.008,-139.529l-0,-415.659l249.008,-139.529l0,274.413c0,17.27 13.996,31.262 31.263,31.262c17.262,0 31.262,-13.992 31.262,-31.262l0,-309.446l237.384,-133.017c15.062,-8.442 20.433,-27.492 11.991,-42.554c-8.437,-15.058 -27.487,-20.421 -42.554,-11.992l-564.271,316.175l-227.196,0l0,-144.362c0,-52.563 -42.762,-95.325 -95.325,-95.325c-52.562,-0 -95.325,42.766 -95.325,95.325l0,144.366l-87.187,0c-94.038,0 -170.546,76.505 -170.546,170.546l0,166.446c0,94.042 76.504,170.546 170.546,170.546l46.533,-0c-8.2,30.6 -200.241,747.312 -212.033,791.321c-21.058,78.6 25.5,159.258 104.112,180.316l45.5,12.192c78.413,21.029 159.209,-25.325 180.321,-104.104l235.721,-879.721l104.879,0l938.021,525.617l0,80.033c0,17.271 13.996,31.263 31.263,31.263c17.266,-0 31.262,-13.992 31.262,-31.263l0,-630.946l163.021,-129.967c63.321,-50.491 63.204,-146.624 0,-197.016Zm-1518.9,-299.625c0,-18.092 14.717,-32.804 32.808,-32.804c18.088,-0 32.805,14.712 32.805,32.804l-0,144.367l-65.613,-0l0,-144.367Zm-45.667,1515.43c-12.116,45.225 -58.508,72.009 -103.745,59.896l-45.5,-12.192c-45.225,-12.12 -72.013,-58.512 -59.896,-103.745l127.779,-476.884l224.154,0l-142.792,532.925Zm159.55,-595.446l-224.158,0l71.833,-268.087l224.154,-0l-71.829,268.087Zm224.838,-330.612l-488.421,-0c-59.563,-0 -108.021,-48.458 -108.021,-108.021l0,-166.446c0,-59.562 48.454,-108.021 108.021,-108.021l488.421,0l-0,382.488Zm1141.2,-141.625l-124.05,98.896l-0,-297.025l124.05,98.896c31.892,25.416 31.846,73.837 -0,99.233Z" style="fill:#0097db;fill-rule:nonzero;"/></g></g></svg>