<?xml version="1.0" encoding="UTF-8" standalone="no"?><!DOCTYPE svg PUBLIC "-//W3C//DTD SVG 1.1//EN" "http://www.w3.org/Graphics/SVG/1.1/DTD/svg11.dtd"><svg width="100%" height="100%" viewBox="0 0 2134 2134" version="1.1" xmlns="http://www.w3.org/2000/svg" xmlns:xlink="http://www.w3.org/1999/xlink" xml:space="preserve" xmlns:serif="http://www.serif.com/" style="fill-rule:evenodd;clip-rule:evenodd;stroke-linejoin:round;stroke-miterlimit:2;"><g><g><path d="M507.675,741.379c-100.867,0 -182.925,82.063 -182.925,182.925c0,100.863 82.058,182.925 182.925,182.925c100.867,0 182.925,-82.062 182.925,-182.925c0,-100.862 -82.058,-182.925 -182.925,-182.925Zm0,303.333c-66.392,0 -120.4,-54.012 -120.4,-120.4c0,-66.387 54.013,-120.4 120.4,-120.4c66.388,0 120.4,54.013 120.4,120.4c0,66.388 -54.008,120.4 -120.4,120.4Z" style="fill:#0097db;fill-rule:nonzero;"/></g></g><g><g><path d="M1066.66,741.383c-126.834,0 -230.025,103.188 -230.025,230.025c-0,126.838 103.187,230.025 230.025,230.025c126.837,0 230.02,-103.187 230.02,-230.025c0,-126.837 -103.187,-230.025 -230.02,-230.025Zm-0,397.525c-92.359,0 -167.505,-75.141 -167.505,-167.504c0,-92.362 75.142,-167.504 167.505,-167.504c92.362,0 167.5,75.142 167.5,167.504c-0,92.363 -75.142,167.504 -167.5,167.504Z" style="fill:#0097db;fill-rule:nonzero;"/></g></g><g><g><path d="M1625.65,741.379c-100.867,0 -182.925,82.063 -182.925,182.925c0,100.863 82.063,182.925 182.925,182.925c100.862,0 182.921,-82.062 182.921,-182.925c-0,-100.862 -82.063,-182.925 -182.921,-182.925Zm0,303.333c-66.392,0 -120.4,-54.012 -120.4,-120.4c0,-66.387 54.017,-120.4 120.4,-120.4c66.388,0 120.4,54.013 120.4,120.4c0,66.388 -54.017,120.4 -120.4,120.4Z" style="fill:#0097db;fill-rule:nonzero;"/></g></g><g><g><path d="M1688.56,1174.06c-0.225,0 -0.45,-0.012 -0.675,-0.012l-124.462,-0c-0.225,-0 -0.45,0.012 -0.675,0.012c-123.846,0.284 -224.858,77.655 -244.358,176.705c-51.675,-28.125 -109.955,-42.355 -170.163,-42.355c-75.575,0 -122.396,-0.5 -156.004,0c-62.654,0 -120.263,11.321 -177.275,42.355c-19.383,-98.446 -119.808,-176.421 -244.358,-176.705c-0.225,0 -0.45,-0.012 -0.675,-0.012l-124.463,-0c-0.225,-0 -0.45,0.012 -0.675,0.012c-136.542,0.313 -247.85,95.071 -247.85,211.884l0,358.05c0,40.975 33.333,74.304 74.304,74.304l397.884,-0l-0,227.354c-0,48.346 39.329,87.675 87.679,87.675l236.937,-0c17.263,-0 31.263,-13.992 31.263,-31.263c-0,-17.266 -13.996,-31.262 -31.263,-31.262l-236.937,0c-13.871,0 -25.155,-11.283 -25.155,-25.15l0,-469.25c0,-90.063 70.08,-160.542 156.046,-189.671l135.913,189.625c9.596,13.388 25.7,21.379 43.075,21.379c17.379,0 33.483,-7.991 43.075,-21.379l135.908,-189.625c87.292,29.579 156.046,101.042 156.046,189.667l-0,469.258c-0,13.867 -11.283,25.15 -25.154,25.15l-236.934,0c-17.266,0 -31.262,13.992 -31.262,31.263c-0,17.266 13.996,31.262 31.262,31.262l236.934,0c48.346,0 87.679,-39.329 87.679,-87.675l-0,-227.354l397.883,-0c40.975,-0 74.313,-33.333 74.313,-74.304l-0,-358.05c-0.013,-116.413 -110.842,-211.575 -247.863,-211.888Zm-1243.12,62.509l124.462,-0c3.246,-0 6.492,0.07 9.721,0.204l-71.95,100.387l-71.95,-100.387c3.225,-0.134 6.467,-0.204 9.717,-0.204Zm223.662,339.841l0,179.375l-397.883,0c-6.5,0 -11.784,-5.287 -11.784,-11.783l0,-358.05c0,-60.279 44.717,-112.3 108.888,-135.883l100.458,140.158l0,0.004c8.713,12.146 23.25,19.4 38.888,19.4c15.637,0 30.179,-7.254 38.887,-19.404l100.459,-140.158c61.245,22.508 108.887,71.12 108.887,141.762c-59.004,52.525 -86.8,118.829 -86.8,184.579Zm397.558,-47.266l-112.262,-156.63c10.462,-0.866 22.517,-1.337 37.896,-1.579l155.921,0c4.804,0 9.6,0.134 14.379,0.35c1.475,0.067 2.929,0.184 4.4,0.271c3.316,0.2 6.637,0.429 9.937,0.734c0.671,0.062 1.334,0.141 2,0.208l-112.271,156.646Zm496.755,-292.575l124.462,-0c3.246,-0 6.492,0.071 9.721,0.204l-71.95,100.387l-71.95,-100.387c3.225,-0.133 6.467,-0.204 9.717,-0.204Zm298.679,519.216l-397.884,0l0,-179.375c0,-66.65 -28.495,-132.679 -86.8,-184.579c0,-70.296 47.242,-119.104 108.884,-141.762l100.458,140.158c18.554,25.892 59.25,25.842 77.779,0l100.459,-140.158c64.17,23.583 108.887,75.604 108.887,135.883l0,358.05l0.004,0c0,6.496 -5.287,11.783 -11.787,11.783Z" style="fill:#0097db;fill-rule:nonzero;"/></g></g><g><g><path d="M920.738,64.117c71.47,9.629 95.875,65.554 102.012,71.954c27.704,28.904 64.217,26.829 88.404,-0.884c6.704,-7.762 37.575,-72.566 118.979,-72.654c61.55,0 115.859,43.638 129.134,103.754c3.725,16.859 20.404,27.534 37.266,23.784c16.855,-3.721 27.509,-20.409 23.788,-37.263c-35.633,-161.375 -252.979,-214.329 -353.65,-63.421c-66.713,-103.433 -212.942,-120.3 -301.3,-31.825c-36.8,36.846 -57.038,85.763 -56.983,137.746c0.212,199.809 174.65,353.305 337.866,430.346c12.863,6.05 28.167,6.354 41.709,-0.067c118.641,-56.299 263.841,-167.166 315.537,-309.483c5.896,-16.229 -2.483,-34.158 -18.712,-40.054c-16.225,-5.883 -34.163,2.483 -40.055,18.713c-44.416,122.275 -171.433,219.783 -277.708,271.529c-144.154,-69.659 -295.937,-202.709 -296.112,-371.042c-0.08,-78.987 69.466,-141.933 149.825,-131.133Z" style="fill:#0097db;fill-rule:nonzero;"/></g></g></svg>