<?xml version="1.0" encoding="UTF-8" standalone="no"?><!DOCTYPE svg PUBLIC "-//W3C//DTD SVG 1.1//EN" "http://www.w3.org/Graphics/SVG/1.1/DTD/svg11.dtd"><svg width="100%" height="100%" viewBox="0 0 2134 2134" version="1.1" xmlns="http://www.w3.org/2000/svg" xmlns:xlink="http://www.w3.org/1999/xlink" xml:space="preserve" xmlns:serif="http://www.serif.com/" style="fill-rule:evenodd;clip-rule:evenodd;stroke-linejoin:round;stroke-miterlimit:2;"><g><g><path d="M2102.08,1095.24l-47.12,-0l-194.551,-449.184c19.4,-17.216 31.659,-42.316 31.659,-70.233c-0,-51.792 -42.134,-93.921 -93.921,-93.921c-26.504,0 -50.467,11.054 -67.563,28.775c-150.741,-68.621 -310.12,-113.304 -474.52,-133.029c-10.33,-62.729 -50.005,-115.662 -104.425,-144.229l-0,-61.288c-0,-43.421 -35.33,-78.741 -78.742,-78.741l-27.329,-0c-43.421,-0 -78.742,35.329 -78.742,78.741l0,61.288c-54.633,28.679 -94.412,81.912 -104.55,144.962c-159.992,19.821 -315.275,63.334 -462.312,129.529c-16.867,-16.095 -39.68,-26.008 -64.78,-26.008c-51.791,0 -93.92,42.133 -93.92,93.921c-0,27.917 12.258,53.017 31.658,70.233l-194.554,449.184l-47.121,-0c-17.263,-0 -31.25,13.987 -31.25,31.25l-0,40.758c-0,130.833 106.446,237.275 237.275,237.275l195.812,0c130.834,0 237.275,-106.446 237.275,-237.275l0,-40.758c0,-17.263 -13.987,-31.25 -31.25,-31.25l-47.12,-0l-194.546,-449.184c11.104,-9.854 19.854,-22.291 25.316,-36.37l511.217,-0l0,963.12l-19.075,0c-122.087,0 -237.275,94.155 -237.275,247.696c-39.367,5.613 -69.762,39.454 -69.762,80.346l-0,57.829c-0,44.804 36.454,81.254 81.254,81.254l297.191,0c17.263,0 31.25,-13.987 31.25,-31.25c0,-17.262 -13.987,-31.25 -31.25,-31.25l-297.191,0c-10.163,0 -18.75,-8.587 -18.75,-18.75l-0,-57.829c-0,-10.162 8.587,-18.75 18.75,-18.75l740.233,0c10.163,0 18.75,8.588 18.75,18.75l0,57.829c0,10.163 -8.587,18.75 -18.75,18.75l-297.192,0c-17.262,0 -31.25,13.988 -31.25,31.25c0,17.263 13.988,31.25 31.25,31.25l297.192,0c44.804,0 81.254,-36.45 81.254,-81.254l0,-57.829c0,-40.892 -30.396,-74.733 -69.762,-80.346c-0,-152.191 -114.021,-247.696 -237.275,-247.696l-19.075,0l-0,-373.396c-0,-17.262 -13.988,-31.25 -31.25,-31.25c-17.263,0 -31.25,13.988 -31.25,31.25l-0,373.396l-125.496,0l-0,-973.083c40.767,13.625 84.729,13.625 125.496,0l-0,453.85c-0,17.263 13.987,31.254 31.25,31.254c17.262,0 31.25,-13.987 31.25,-31.254l-0,-443.883l526.083,-0c5.463,14.075 14.213,26.512 25.317,36.371l-194.55,449.183l-47.129,-0c-17.263,-0 -31.25,13.987 -31.25,31.25l-0,40.758c-0,130.833 106.446,237.275 237.275,237.275l195.812,0c130.833,0 237.275,-106.446 237.275,-237.275l0,-40.758c0.004,-17.267 -13.987,-31.254 -31.246,-31.254Zm-1766.9,-550.834c17.384,0 32.075,14.371 31.317,32.729c-0.008,0.221 0.012,0.438 0.004,0.655c-1.054,16.9 -15.229,29.441 -31.317,29.441c-17.008,0 -31.416,-13.825 -31.416,-31.412c-0.009,-17.317 14.091,-31.413 31.412,-31.413Zm272.684,613.338c-0,115.937 -85.438,184.279 -174.775,184.279l-195.817,-0c-89.604,-0 -174.775,-68.508 -174.775,-184.279l545.367,-0Zm-83.984,-62.504l-377.4,-0l184.338,-425.605c2.887,0.159 6.179,0.138 8.725,0l184.337,425.605Zm-57.508,-548.055c126.737,-52.754 259.458,-88.258 395.792,-105.85c6.129,38.9 23.725,75.996 51.983,105.85l-447.775,0Zm562.954,-375.054c0,-8.954 7.283,-16.237 16.238,-16.237l27.329,-0c8.954,-0 16.237,7.283 16.237,16.237l0,40.754c-9.3,-1.408 -20.571,-2.237 -29.904,-2.237c-9.142,-0 -20.417,0.804 -29.9,2.237l0,-40.754Zm174.238,1463.18c89.608,-0 174.77,68.508 174.77,184.283l-638.204,0c0,-115.937 85.438,-184.283 174.771,-184.283l288.663,-0Zm-144.334,-1088.12c-76.491,-0 -138.616,-62.996 -136.929,-140.055c0,-0.075 -0.008,-0.145 -0.008,-0.22c1.375,-58.367 39.466,-107.959 92.091,-126.188c89.425,-31.108 181.867,36.359 181.867,129.442c0,75.662 -61.521,137.021 -137.021,137.021Zm145.054,-0.005c28.305,-29.945 46.18,-67.687 52.155,-106.591c138.404,17.321 273.075,53.071 401.633,106.592l-453.788,-0Zm562.546,29.958c-0.746,-18.171 13.771,-32.738 31.313,-32.738c17.321,0 31.416,14.096 31.416,31.417c0,17.579 -14.416,31.413 -31.416,31.413c-16.246,-0 -30.267,-12.663 -31.317,-29.442c-0.004,-0.217 0.017,-0.433 0.004,-0.65Zm26.95,92.492l0.029,-0c2.813,0.129 5.625,0.166 8.696,-0l184.338,425.604l-377.4,-0l184.337,-425.604Zm102.271,672.383l-195.812,-0c-89.609,-0 -174.771,-68.508 -174.771,-184.284l545.362,0c-0.004,115.946 -85.441,184.284 -174.779,184.284Z" style="fill:#0097db;fill-rule:nonzero;"/></g></g><g><g><path d="M1059.23,317.763c-50.958,-0 -92.408,41.454 -92.408,92.404c0,50.958 41.458,92.408 92.408,92.408c50.959,-0 92.409,-41.454 92.409,-92.408c0.004,-50.954 -41.45,-92.404 -92.409,-92.404Zm0,122.312c-16.487,-0 -29.904,-13.417 -29.904,-29.904c0,-16.488 13.417,-29.9 29.904,-29.9c16.488,-0 29.905,13.412 29.905,29.9c0.004,16.487 -13.413,29.904 -29.905,29.904Z" style="fill:#0097db;fill-rule:nonzero;"/></g></g></svg>