<?xml version="1.0" encoding="UTF-8" standalone="no"?><!DOCTYPE svg PUBLIC "-//W3C//DTD SVG 1.1//EN" "http://www.w3.org/Graphics/SVG/1.1/DTD/svg11.dtd"><svg width="100%" height="100%" viewBox="0 0 2134 2134" version="1.1" xmlns="http://www.w3.org/2000/svg" xmlns:xlink="http://www.w3.org/1999/xlink" xml:space="preserve" xmlns:serif="http://www.serif.com/" style="fill-rule:evenodd;clip-rule:evenodd;stroke-linejoin:round;stroke-miterlimit:2;"><g><g><path d="M736.533,1200.97c-211.475,-0 -382.004,172.137 -382.004,382.004c0,209.883 170.396,382.004 382.004,382.004c211.467,0 382.005,-172.133 382.005,-382.004c-0,-211.467 -172.13,-382.004 -382.005,-382.004Zm-246.825,179.375l171.375,171.375l-242.5,-0c6.313,-64.679 31.967,-123.767 71.125,-171.375Zm-71.12,233.879l242.5,-0l-171.375,171.375c-39.163,-47.608 -64.817,-106.696 -71.125,-171.375Zm286.695,286.7c-64.679,-6.308 -123.77,-31.967 -171.383,-71.121l171.383,-171.383l0,242.504Zm0,-393.4l-171.383,-171.375c47.608,-39.158 106.7,-64.813 171.383,-71.121l0,242.496Zm349.2,44.2l-242.5,-0l171.375,-171.375c39.155,47.604 64.817,106.696 71.125,171.375Zm-286.695,-286.704c64.679,6.308 123.77,31.966 171.375,71.121l-171.375,171.375l-0,-242.496Zm-0,635.904l-0,-242.5l171.375,171.375c-47.609,39.154 -106.696,64.817 -171.375,71.125Zm215.575,-115.321l-171.375,-171.375l242.499,0c-6.312,64.675 -31.97,123.767 -71.125,171.375Z" style="fill:#0097db;fill-rule:nonzero;"/></g></g><g><g><path d="M1781.91,1908.21c-18.941,-3.82 -37.337,10.713 -37.337,30.663c-0,17.071 13.833,31.25 31.25,31.25c17.025,-0 31.25,-13.9 31.25,-31.25c0.008,-14.196 -9.704,-27.458 -25.163,-30.663Z" style="fill:#0097db;fill-rule:nonzero;"/></g></g><g><g><path d="M1775.82,1806.9c50.196,0 95.416,27.992 118.021,73.058c7.737,15.421 26.516,21.659 41.95,13.921c15.425,-7.737 21.658,-26.516 13.92,-41.95c-28.508,-56.829 -81.512,-95.187 -142.637,-105.021l-0,-70.241l68.117,-0c52.441,-0 95.1,-42.663 95.1,-95.1c-0,-52.438 -42.663,-95.096 -95.1,-95.096l-302.075,-0l-0,-635.475l28.879,-0c52.441,-0 95.1,-42.663 95.1,-95.1c-0,-52.438 -42.663,-95.1 -95.1,-95.1l-184.413,-0c-17.262,-0 -31.25,13.987 -31.25,31.25c0,17.262 13.988,31.25 31.25,31.25l184.413,-0c17.971,-0 32.596,14.625 32.596,32.596c-0,17.97 -14.625,32.595 -32.596,32.595l-514.671,0c-17.971,0 -32.592,-14.625 -32.592,-32.595c0,-17.971 14.621,-32.596 32.592,-32.596l184.417,-0c17.262,-0 31.25,-13.988 31.25,-31.25c-0,-17.263 -13.988,-31.25 -31.25,-31.25l-184.417,-0c-52.438,-0 -95.096,42.662 -95.096,95.1c0,11.446 2.033,22.425 5.758,32.596l-90.829,-0l0,-468.221c0,-54.367 -44.233,-98.596 -98.596,-98.596l-40.771,-0l0,-27.204c0,-48.95 -39.825,-88.775 -88.775,-88.775l-92.212,-0l-0,-74.438c-0,-17.262 -13.992,-31.25 -31.25,-31.25c-17.258,0 -31.25,13.988 -31.25,31.25l-0,10.592l-266.154,-0c-52.438,-0 -95.1,42.662 -95.1,95.096c-0,52.441 42.662,95.1 95.1,95.1l266.146,-0l-0,9.654c-0,17.262 13.991,31.25 31.25,31.25c17.258,-0 31.25,-13.988 31.25,-31.25l-0,-73.508l92.212,-0c14.488,-0 26.271,11.783 26.271,26.27l-0,839.046c-288.983,16.263 -519.108,256.479 -519.108,549.463c0.004,303.471 246.896,550.362 550.366,550.362c271.538,0 497.738,-197.671 542.35,-456.666l465.684,-0l-0,70.275c-92.417,14.995 -163.213,95.329 -163.213,191.92c0,107.234 87.238,194.471 194.467,194.471c73.983,0 140.612,-41.208 173.891,-107.533c7.738,-15.425 1.505,-34.213 -13.92,-41.95c-15.417,-7.725 -34.205,-1.508 -41.95,13.921c-22.605,45.062 -67.825,73.054 -118.021,73.054c-72.763,-0 -131.963,-59.2 -131.963,-131.967c-0.004,-72.758 59.196,-131.958 131.959,-131.958Zm-1251.53,-1637.35l-266.146,-0l-0,-0.004c-17.971,-0 -32.596,-14.625 -32.596,-32.596c-0,-17.971 14.621,-32.596 32.596,-32.596l266.146,-0l-0,65.196Zm243.5,114.629l40.766,-0c19.9,-0 36.096,16.192 36.096,36.096l0,468.216l-76.862,0l-0,-504.312Zm-0.005,566.817l742.821,-0l0,181.616l-742.821,0l0,-181.616Zm-31.254,1219.84c-269.008,0 -487.858,-218.85 -487.858,-487.858c-0,-269.009 218.85,-487.859 487.858,-487.859c266.609,0 487.859,216.342 487.859,487.859c-0,268.087 -218.03,487.858 -487.859,487.858Zm541.884,-584.358c-30.484,-170.396 -138.484,-313.371 -287.371,-391.359l519.558,0l0,391.359l-232.187,-0Zm7.583,127.687c1.146,-19.8 1.262,-42.271 -0.154,-65.191l589.341,-0c17.971,-0 32.596,14.62 32.596,32.595c0,17.971 -14.625,32.596 -32.596,32.596l-589.187,0Z" style="fill:#0097db;fill-rule:nonzero;"/></g></g></svg>