<?xml version="1.0" encoding="UTF-8" standalone="no"?><!DOCTYPE svg PUBLIC "-//W3C//DTD SVG 1.1//EN" "http://www.w3.org/Graphics/SVG/1.1/DTD/svg11.dtd"><svg width="100%" height="100%" viewBox="0 0 2134 2134" version="1.1" xmlns="http://www.w3.org/2000/svg" xmlns:xlink="http://www.w3.org/1999/xlink" xml:space="preserve" xmlns:serif="http://www.serif.com/" style="fill-rule:evenodd;clip-rule:evenodd;stroke-linejoin:round;stroke-miterlimit:2;"><g><g><path d="M1316.92,1211.22l-50.7,-0l0,-50.7c0,-46.384 -37.742,-84.121 -84.121,-84.121c-46.387,-0 -84.121,37.742 -84.121,84.121l0,50.7l-50.7,-0c-46.387,-0 -84.12,37.741 -84.12,84.121c-0,46.379 37.741,84.12 84.12,84.12l50.7,0l0,50.7c0,46.392 37.742,84.125 84.121,84.125c46.384,0 84.121,-37.741 84.121,-84.125l0,-50.7l50.7,0c46.388,0 84.121,-37.741 84.121,-84.121c-0,-46.379 -37.738,-84.12 -84.121,-84.12Zm0,105.741l-81.95,0c-17.258,0 -31.25,13.988 -31.25,31.25l0,81.95c0,11.921 -9.7,21.621 -21.617,21.621c-11.916,0 -21.616,-9.7 -21.616,-21.621l-0,-81.95c-0,-17.262 -13.992,-31.25 -31.25,-31.25l-81.95,0c-11.921,0 -21.617,-9.696 -21.617,-21.616c0,-11.921 9.7,-21.617 21.617,-21.617l81.95,0c17.258,0 31.25,-13.988 31.25,-31.25l-0,-81.95c-0,-11.921 9.7,-21.617 21.616,-21.617c11.917,0 21.617,9.696 21.617,21.617l0,81.95c0,17.262 13.992,31.25 31.25,31.25l81.95,0c11.921,0 21.617,9.696 21.617,21.617c-0,11.92 -9.7,21.616 -21.617,21.616Z" style="fill:#0097db;fill-rule:nonzero;"/></g></g><g><g><path d="M1260.97,890.4c-16.929,-3.275 -33.346,7.796 -36.63,24.738c-3.283,16.945 7.796,33.341 24.738,36.629c163.996,31.766 283.029,176.266 283.029,343.579c0,192.992 -157.012,350.004 -350.004,350.004c-192.992,0 -350.004,-157.012 -350.004,-350.004c-0,-167.313 119.029,-311.813 283.025,-343.579c16.942,-3.284 28.021,-19.679 24.737,-36.629c-3.283,-16.946 -19.7,-28.013 -36.629,-24.738c-193.329,37.45 -333.641,207.754 -333.641,404.946c-0,227.458 185.054,412.508 412.508,412.508c227.454,0 412.508,-185.05 412.508,-412.508c0.009,-197.188 -140.308,-367.496 -333.637,-404.946Z" style="fill:#0097db;fill-rule:nonzero;"/></g></g><g><g><path d="M2102.08,1253.67c17.259,-0 31.25,-13.988 31.25,-31.25l0,-395c0,-100.317 -81.616,-181.938 -181.941,-181.938l-258.663,0l0,-93.879c0,-133.846 -108.896,-242.742 -242.741,-242.742l-535.771,0c-133.85,0 -242.742,108.896 -242.742,242.742l-0,93.879l-205.946,0l-85.029,-145.966c-11.271,-19.346 -31.492,-31.875 -53.629,-33.579l-0,-246.546c-0,-17.263 -13.992,-31.25 -31.25,-31.25c-17.259,-0 -31.25,13.987 -31.25,31.25l-0,246.641c-22.367,2.017 -42.734,14.784 -54.154,34.384l-165.425,283.958c-0.055,0.087 -0.088,0.188 -0.138,0.275c-2.704,4.733 -4.096,10.175 -4.108,15.404c-0,0.017 -0.004,0.034 -0.004,0.05l-0,687.809l-9.292,-0c-17.258,-0 -31.25,13.987 -31.25,31.25c-0,17.262 13.992,31.25 31.25,31.25l167.446,-0l-0,191.283l-71.35,-0c-47.867,-0 -86.809,38.946 -86.809,86.808l0,29.875c0,47.867 38.946,86.809 86.809,86.809l1824.05,-0c100.321,-0 181.941,-81.617 181.941,-181.938l0,-395c0,-17.262 -13.991,-31.25 -31.25,-31.25c-17.258,0 -31.25,13.988 -31.25,31.25l0,395c0,65.858 -53.579,119.433 -119.437,119.433l-1404.23,0c2.259,-7.72 3.53,-15.862 3.53,-24.304l-0,-29.875c-0,-47.866 -38.946,-86.808 -86.809,-86.808l-71.354,-0l0,-191.283l165.683,-0c17.259,-0 31.25,-13.988 31.25,-31.25c0,-17.263 -13.991,-31.25 -31.25,-31.25l-7.52,-0l-0,-687.805c-0,-0.016 -0.005,-0.033 -0.005,-0.05c0,-0.104 -0.012,-0.204 -0.016,-0.308c-0.059,-5.054 -1.4,-10.379 -4.092,-15.096c-0.05,-0.091 -0.087,-0.187 -0.137,-0.275l-44.5,-76.383l1449.45,-0c65.858,-0 119.437,53.575 119.437,119.433l0,395c0,17.254 13.992,31.242 31.254,31.242Zm-1837.87,-721.792c1.312,-2.254 3.745,-3.654 6.354,-3.654l51.116,0c1.967,0 3.809,1.058 4.796,2.758c16.463,28.259 122.35,210.017 138.575,237.871l-338.896,0l138.055,-236.975Zm184.729,1272.33c21.637,0 39.246,17.604 39.246,39.246c-0,21.638 -17.605,39.246 -39.246,39.246l-321.6,-0c-13.4,-0 -24.304,-10.9 -24.304,-24.304l-0,-29.875c-0,-13.404 10.904,-24.304 24.304,-24.304c8.621,-0.009 313.029,-0.009 321.6,-0.009Zm-187.742,-62.504l0,-191.283l68.821,-0l-0,191.283l-68.821,0Zm226.983,-253.783l-385.15,-0l0,-128.496l85.067,-0c17.258,-0 31.25,-13.988 31.25,-31.25c0,-17.263 -13.992,-31.25 -31.25,-31.25l-85.067,-0l0,-106.029l85.067,-0c17.258,-0 31.25,-13.988 31.25,-31.25c0,-17.263 -13.992,-31.25 -31.25,-31.25l-85.067,-0l0,-106.025l85.067,-0c17.258,-0 31.25,-13.988 31.25,-31.25c0,-17.263 -13.992,-31.25 -31.25,-31.25l-85.067,-0l0,-128.5l385.15,-0l0,656.55Zm517.209,-1116.55l353.425,-0l-0,43.241l-353.425,0l-0,-43.241Zm-228.175,180.237l-0,93.879l-43.242,0l0,-93.879c0,-99.383 80.854,-180.237 180.238,-180.237l28.666,-0l0,43.241l-28.666,0c-75.538,0 -136.996,61.459 -136.996,136.996Zm62.504,93.879l-0,-93.879c-0,-41.075 33.421,-74.491 74.492,-74.491l535.77,-0c41.075,-0 74.492,33.42 74.492,74.491l0,93.879l-684.754,0Zm790.504,0l-43.242,0l0,-93.879c0,-75.537 -61.458,-136.996 -136.995,-136.996l-28.667,0l-0,-43.241l28.667,-0c99.383,-0 180.237,80.85 180.237,180.237l0,93.879Z" style="fill:#0097db;fill-rule:nonzero;"/></g></g></svg>