<?xml version="1.0" encoding="UTF-8" standalone="no"?><!DOCTYPE svg PUBLIC "-//W3C//DTD SVG 1.1//EN" "http://www.w3.org/Graphics/SVG/1.1/DTD/svg11.dtd"><svg width="100%" height="100%" viewBox="0 0 2134 2134" version="1.1" xmlns="http://www.w3.org/2000/svg" xmlns:xlink="http://www.w3.org/1999/xlink" xml:space="preserve" xmlns:serif="http://www.serif.com/" style="fill-rule:evenodd;clip-rule:evenodd;stroke-linejoin:round;stroke-miterlimit:2;"><g><g><path d="M1038.57,907.479l-48.475,0l-0,-48.479c-0,-45.587 -37.092,-82.688 -82.688,-82.688c-45.595,0 -82.691,37.092 -82.691,82.688l-0,48.479l-48.475,0c-45.596,0 -82.692,37.092 -82.692,82.688c0,45.591 37.092,82.691 82.692,82.691l48.475,0l-0,48.48c-0,45.591 37.091,82.691 82.691,82.691c45.6,0 82.688,-37.091 82.688,-82.691l-0,-48.48l48.475,0c45.596,0 82.692,-37.091 82.692,-82.691c-0,-45.588 -37.092,-82.688 -82.692,-82.688Zm-0,102.875l-79.729,0c-17.259,0 -31.25,13.988 -31.25,31.25l-0,79.729c-0,11.134 -9.054,20.188 -20.184,20.188c-11.129,-0 -20.187,-9.054 -20.187,-20.188l-0,-79.729c-0,-17.262 -13.992,-31.25 -31.25,-31.25l-79.729,0c-11.129,0 -20.188,-9.058 -20.188,-20.187c0,-11.129 9.054,-20.184 20.188,-20.184l79.729,0c17.262,0 31.25,-13.987 31.25,-31.25l-0,-79.733c-0,-11.129 9.054,-20.183 20.187,-20.183c11.13,-0 20.184,9.054 20.184,20.183l-0,79.733c-0,17.263 13.991,31.25 31.25,31.25l79.729,0c11.129,0 20.187,9.055 20.187,20.184c0,11.125 -9.054,20.187 -20.187,20.187Z" style="fill:#0097db;fill-rule:nonzero;"/></g></g><g><g><path d="M1801.99,262.583c-16.426,-5.27 -34.03,3.775 -39.305,20.213c-40.62,126.625 -170.145,227.562 -280.075,281.096c-256.883,-123.859 -357.454,-361.03 -256.291,-462.342c61.462,-61.554 164.466,-47.646 207.454,27.996c17.229,30.283 71.129,40.983 97.308,-1.075c66.742,-107.271 208.784,-73.767 239.742,27.191c5.058,16.5 22.537,25.775 39.037,20.717c16.5,-5.062 25.775,-22.537 20.717,-39.042c-45.963,-149.879 -251.617,-193.187 -348.367,-48.4c-90.629,-140.208 -308.216,-107.558 -350.7,56.705l-583.412,-0c-136.046,-0 -246.729,110.683 -246.729,246.733l-0,1109.39c-0,136.045 110.683,246.733 246.729,246.733l142.883,-0l0,51.825c0,51.271 41.708,92.975 92.975,92.975l92.2,-0l0,208.787c0,17.263 13.992,31.25 31.25,31.25c17.258,0 31.25,-13.987 31.25,-31.25l0,-208.791l92.196,-0c51.271,-0 92.975,-41.709 92.975,-92.975l0,-51.825l142.879,-0c136.046,-0 246.729,-110.684 246.729,-246.734l0,-883.395c120.9,-59.734 262.575,-172.534 308.755,-316.475c5.279,-16.438 -3.767,-34.034 -20.201,-39.305Zm-740.654,1537.73c-0.004,16.8 -13.675,30.47 -30.475,30.47l-246.896,0c-16.804,0 -30.47,-13.67 -30.47,-30.47l-0,-51.825l307.845,-0l0,51.825l-0.004,-0Zm389.609,-298.555c-0,101.584 -82.646,184.23 -184.23,184.23l-718.616,-0c-101.584,-0 -184.225,-82.646 -184.225,-184.23l-0,-61.125l1087.07,0l-0,61.125Zm0.004,-123.629l-1087.08,0l-0,-126.529l71.625,0c17.258,0 31.25,-13.988 31.25,-31.25c-0,-17.262 -13.992,-31.25 -31.25,-31.25l-71.625,0l-0,-167.683l71.625,-0c17.258,-0 31.25,-13.988 31.25,-31.25c-0,-17.263 -13.992,-31.25 -31.25,-31.25l-71.625,-0l-0,-167.679l71.625,-0c17.258,-0 31.25,-13.988 31.25,-31.25c-0,-17.263 -13.992,-31.25 -31.25,-31.25l-71.625,-0l-0,-136.817l470.617,-0c17.258,-0 31.25,-13.988 31.25,-31.25c-0,-17.263 -13.992,-31.25 -31.25,-31.25l-470.617,-0l-0,-137.042c-0,-101.583 82.642,-184.229 184.225,-184.229l577.012,0c3.321,125.025 85.959,241.417 185.205,321.271l-329.984,-0c-17.258,-0 -31.25,13.987 -31.25,31.25c0,17.262 13.992,31.25 31.25,31.25l421.667,-0c16.512,9.533 34.742,19.175 48.95,26.129l-0,760.079Z" style="fill:#0097db;fill-rule:nonzero;"/></g></g></svg>