<?xml version="1.0" encoding="UTF-8" standalone="no"?><!DOCTYPE svg PUBLIC "-//W3C//DTD SVG 1.1//EN" "http://www.w3.org/Graphics/SVG/1.1/DTD/svg11.dtd"><svg width="100%" height="100%" viewBox="0 0 2134 2134" version="1.1" xmlns="http://www.w3.org/2000/svg" xmlns:xlink="http://www.w3.org/1999/xlink" xml:space="preserve" xmlns:serif="http://www.serif.com/" style="fill-rule:evenodd;clip-rule:evenodd;stroke-linejoin:round;stroke-miterlimit:2;"><g><g><path d="M2128.35,1721.19l-250.492,-388.267l250.479,-387.95c7.271,-11.263 6.55,-25.913 -1.795,-36.409l-123.059,-154.725c-5.691,-7.158 -14.987,-11.795 -24.458,-11.795l-336.858,-0l178.704,-258.321c41.108,-59.375 26.341,-140.779 -33.104,-181.875c-59.363,-41.092 -140.767,-26.334 -181.875,33.125l-407.909,589.641c-12.446,16.755 -58.887,69.384 -150.046,69.384l-251.808,-0c-91.092,-0 -137.583,-52.634 -150.05,-69.396l-407.908,-589.629c-41.088,-59.417 -122.438,-74.242 -181.875,-33.133c-59.263,41.004 -74.121,122.583 -33.125,181.87l500.404,723.329c6.083,10.342 78.896,137.238 78.896,279.563l-0,297.079c-0,39.192 31.887,71.075 71.079,71.075l175.562,0c17.263,0 31.255,-13.987 31.255,-31.254c-0,-17.267 -13.988,-31.254 -31.255,-31.254l-175.562,-0c-4.729,-0 -8.575,-3.846 -8.575,-8.571l-0,-297.079c-0,-135.359 -62.608,-275.667 -89.392,-314.246l-501.008,-724.196c-21.392,-30.937 -13.638,-73.512 17.283,-94.908c30.921,-21.396 73.409,-13.792 94.9,17.283l408.196,590.046c0.179,0.262 0.363,0.517 0.55,0.771c16.458,22.321 79.583,95.158 200.617,95.158l251.808,0c92.15,0 167.183,-46.142 201.167,-95.929l408.191,-590.05c21.23,-30.717 63.638,-38.917 94.909,-17.275c30.916,21.371 38.783,63.825 17.266,94.9l-203.308,293.892l-86.525,-0c-9.133,-0 -18.442,4.229 -24.458,11.8l-123.059,154.72c-8.345,10.496 -9.066,25.146 -1.795,36.409l46.083,71.379l-107.913,156c-0.341,0.492 -0.67,1 -0.983,1.512c-3.608,5.921 -88.412,146.963 -88.412,312.734l-0,297.375c-0,4.562 -3.713,8.271 -8.271,8.271l-175.863,-0c-17.262,-0 -31.254,13.987 -31.254,31.254c0,17.262 13.988,31.254 31.254,31.254l175.863,-0c39.029,-0 70.775,-31.75 70.775,-70.775l-0,-297.375c-0,-142.417 72.904,-269.379 78.9,-279.558l92.604,-133.867l167.696,259.742l-250.484,388.271c-4.787,7.425 -6.212,16.533 -3.912,25.066c2.3,8.534 8.1,15.696 15.975,19.709l167.342,85.366c14.32,7.3 31.779,2.554 40.458,-10.883l179.154,-277.483l179.158,277.483c8.679,13.437 26.138,18.187 40.459,10.883l167.341,-85.366c16.488,-8.405 22.084,-29.234 12.063,-44.775Zm-206.688,-916.642c-11.554,17.908 -45.758,70.925 -59.491,92.221l-265.684,-0l-59.491,-92.221l384.666,-0Zm-99.816,154.725l-92.521,143.412l-92.521,-143.412l185.042,-0Zm-426.855,-29.358l81.988,-103.08c13.737,21.292 191.133,296.263 215.154,333.5l-74.154,114.946l-222.988,-345.366Zm117.984,852.92l-111.388,-56.825c40.367,-62.566 557.817,-864.65 580.092,-899.175l81.987,103.08c-24.925,38.595 -515.008,797.654 -550.691,852.92Zm432.704,0l-179.154,-277.483l74.121,-114.804l216.42,335.462l-111.387,56.825Z" style="fill:#0097db;fill-rule:nonzero;"/></g></g><g><g><path d="M1177.78,629.646c-16.571,-4.879 -33.938,4.583 -38.813,21.133c-28.149,95.446 -117.349,162.109 -216.933,162.109c-124.729,-0 -226.204,-101.471 -226.204,-226.192c0,-124.721 101.475,-226.196 226.204,-226.196c99.575,0 188.784,66.663 216.934,162.108c4.879,16.555 22.245,26.021 38.816,21.134c16.554,-4.884 26.017,-22.263 21.129,-38.817c-35.933,-121.837 -149.791,-206.933 -276.883,-206.933c-159.192,-0 -288.708,129.512 -288.708,288.7c-0,159.187 129.516,288.696 288.708,288.696c127.096,-0 240.954,-85.096 276.883,-206.934c4.888,-16.546 -4.579,-33.929 -21.133,-38.808Z" style="fill:#0097db;fill-rule:nonzero;"/></g></g></svg>