<?xml version="1.0" encoding="UTF-8" standalone="no"?><!DOCTYPE svg PUBLIC "-//W3C//DTD SVG 1.1//EN" "http://www.w3.org/Graphics/SVG/1.1/DTD/svg11.dtd"><svg width="100%" height="100%" viewBox="0 0 2134 2134" version="1.1" xmlns="http://www.w3.org/2000/svg" xmlns:xlink="http://www.w3.org/1999/xlink" xml:space="preserve" xmlns:serif="http://www.serif.com/" style="fill-rule:evenodd;clip-rule:evenodd;stroke-linejoin:round;stroke-miterlimit:2;"><g><g><path d="M1972.03,305.313c-40.354,-78.65 -147.766,-93.117 -206.429,-25.484c-81.429,-93.379 -255.487,-27.979 -213.688,135.434c-28.666,11.87 -60.57,33.533 -87.045,72.958c-65.904,-101.217 -209.413,-117.583 -296.255,-30.629c-36.233,36.283 -56.162,84.454 -56.116,135.646c0.2,196.458 171.65,347.345 332.071,423.062c13.279,6.25 28.5,6.075 41.425,-0.062c25.829,-12.255 93.171,-46.867 160.471,-103.421c109.066,-91.65 166.333,-194.842 170.445,-306.954c56.696,-33.03 105.384,-77.73 133.984,-124.017c9.071,-14.679 4.521,-33.938 -10.159,-43.008c-14.679,-9.071 -33.941,-4.53 -43.012,10.158c-28.992,46.925 -81.75,87.812 -132.046,113.65c-78.121,-39.263 -157.879,-111.746 -157.967,-199.825c-0.062,-65.121 86.534,-87.183 118.313,-31.267c15.642,27.5 59.408,31.425 79.021,-0.175c29.546,-47.475 90.137,-38.921 111.375,2.471c7.883,15.354 26.712,21.413 42.071,13.538c15.362,-7.88 21.42,-26.721 13.541,-42.075Zm-219.225,320.166c-9.916,85.575 -59.091,165.996 -146.55,239.492c-57.083,47.967 -114.1,78.683 -141.066,91.917c-141.313,-68.363 -290.017,-198.775 -290.192,-363.705c-0.033,-34.491 13.404,-66.958 37.837,-91.425c60.417,-60.491 161.646,-46.787 203.88,27.513c5.47,9.629 25.079,27.312 49.7,26.742c19.691,-0.459 37.32,-12.259 46.995,-27.784c18.834,-30.266 41.705,-46.454 62.009,-55.033c45.037,79.704 141.087,140.379 177.387,152.283Z" style="fill:#0097db;fill-rule:nonzero;"/></g></g><g><g><path d="M2130.11,1415.86c-0.067,-0.329 -0.138,-0.658 -0.213,-0.983c-10.767,-46.317 -38.496,-79.617 -78.025,-96.967c45.883,-124.212 -90.996,-240.679 -206.987,-171.825c-302.388,179.505 -289.555,169.688 -308.034,189.45l-27.121,1.888c6.755,-41.675 -3.204,-94.175 -61.716,-134.025c-230.404,-156.963 -271.392,-191.496 -341.192,-206.579c-204.717,-44.671 -246.925,-52.342 -362.479,-28.842c-87.408,17.775 -175.242,43.692 -261.558,77.017l-11.638,-28.259c-15.967,-38.775 -60.275,-57.241 -99.05,-41.266l-324.142,133.471c-29.133,12 -47.958,40.112 -47.958,71.625l0,650.379c0,46.846 47.6,78.371 90.579,60.729l563.525,-231.404c38.684,-15.929 57.2,-60.363 41.267,-99.05l-0.004,-0l-11.134,-27.038l34,-14c65.771,-27.087 146.638,-14.921 216.321,32.538c196.071,133.579 198.579,139.6 248.763,158.058c16.212,5.958 34.154,-2.346 40.116,-18.542c5.959,-16.195 -2.345,-34.158 -18.541,-40.116c-37.767,-13.892 -35.584,-15.092 -235.154,-151.05c-87.121,-59.334 -190.034,-73.788 -275.3,-38.675l-34,14c-4.755,-11.55 -106.834,-259.425 -153.867,-373.646c82.65,-31.829 166.679,-56.521 250.229,-73.513c86.771,-17.641 132.788,-19.616 336.125,28.538c59.271,14.129 84.808,37.129 319.908,197.292c35.375,24.091 47.488,60.404 24.659,101.679c-2.604,4.7 -26.754,45.283 -72.563,22.666c-73.079,-36.062 -247.346,-121.22 -249.096,-122.079c-15.52,-7.575 -34.229,-1.146 -41.795,14.359c-7.575,15.508 -1.15,34.216 14.354,41.795c1.754,0.855 175.912,85.959 248.879,121.967c57.375,28.313 112.1,8.521 144.887,-33.454c645.738,-44.908 464.663,-34.225 523.359,-33.567c28.687,5.038 54.183,21.313 63.383,60.113c14.083,72.629 -60.375,97.137 -77.696,101.808l-643.396,129.254c-16.92,3.4 -27.879,19.871 -24.483,36.792c2.983,14.846 16.025,25.1 30.608,25.1c2.038,-0 4.109,-0.2 6.188,-0.617c1.367,-0.275 644.733,-129.496 646.083,-129.846c56.042,-14.658 145.2,-68.033 123.909,-175.175Zm-1492.53,169.155c2.804,6.816 -0.458,14.645 -7.246,17.441l-563.491,231.392c-0.429,0.175 -1.55,0.637 -2.946,-0.296c-1.392,-0.933 -1.392,-2.154 -1.392,-2.608l0,-650.38c0,-6.083 3.634,-11.512 9.259,-13.824l324.154,-133.48c1.816,-0.75 3.533,-1.016 5.058,-1.016c2.221,-0 4.042,0.562 5.171,1.037c1.912,0.796 5.392,2.796 7.225,7.254c100.2,243.342 129.025,313.33 224.208,544.48Zm1352.15,-280.625c-16.1,-0.613 -29.896,0.6 -45.225,2.791l-140.525,9.775l-140.987,9.804l213.812,-126.929c68.642,-40.741 148.292,33.525 112.925,104.559Z" style="fill:#0097db;fill-rule:nonzero;"/></g></g></svg>