<?xml version="1.0" encoding="UTF-8" standalone="no"?><!DOCTYPE svg PUBLIC "-//W3C//DTD SVG 1.1//EN" "http://www.w3.org/Graphics/SVG/1.1/DTD/svg11.dtd"><svg width="100%" height="100%" viewBox="0 0 2134 2134" version="1.1" xmlns="http://www.w3.org/2000/svg" xmlns:xlink="http://www.w3.org/1999/xlink" xml:space="preserve" xmlns:serif="http://www.serif.com/" style="fill-rule:evenodd;clip-rule:evenodd;stroke-linejoin:round;stroke-miterlimit:2;"><g><g><path d="M1848.86,1354.2l-368.404,-288.946l0,-138.083c0,-17.263 -13.987,-31.25 -31.25,-31.25c-17.262,-0 -31.25,13.987 -31.25,31.25l0,89.058l-332,-260.391c-11.329,-8.88 -27.246,-8.88 -38.579,-0l-332,260.391l-0,-371.116l351.283,-275.53l351.288,275.521l-0,136.217c-0,17.262 13.987,31.25 31.25,31.25c17.262,-0 31.25,-13.988 31.25,-31.25l-0,-87.196l55.454,43.496c13.583,10.658 33.225,8.271 43.879,-5.3c10.654,-13.583 8.275,-33.225 -5.3,-43.879l-476.566,-373.771l-0,-131.342l89.087,0c17.263,0 31.25,-13.987 31.25,-31.25c0,-17.262 -13.987,-31.25 -31.25,-31.25l-89.087,0l-0,-89.579c-0,-17.262 -13.988,-31.25 -31.25,-31.25c-17.263,0 -31.25,13.988 -31.25,31.25l-0,89.567l-89.088,-0c-17.262,-0 -31.25,13.987 -31.25,31.25c0,17.262 13.988,31.25 31.25,31.25l89.088,-0l-0,131.35c-16.038,12.579 -459.7,360.55 -476.563,373.775c-13.579,10.654 -15.954,30.295 -5.3,43.879c10.671,13.6 30.321,15.937 43.879,5.3l55.45,-43.492l0,371.117l-368.404,288.946c-13.579,10.654 -15.954,30.295 -5.3,43.879c10.654,13.579 30.296,15.958 43.879,5.3l125.517,-98.442l-0,765.892l-131.579,-0c-17.263,-0 -31.25,13.987 -31.25,31.25c-0,17.262 13.987,31.25 31.25,31.25l1499.34,-0c17.263,-0 31.25,-13.988 31.25,-31.25c0,-17.263 -13.987,-31.25 -31.25,-31.25l-131.566,-0l-0,-765.883l125.516,98.441c13.563,10.642 33.217,8.288 43.879,-5.3c10.651,-13.583 8.276,-33.225 -5.304,-43.879Zm-813.45,716.629l-181.787,0l-0,-494.912c-0,-75.146 61.137,-136.284 136.283,-136.284l45.504,0l0,631.196Zm586.855,-0.004l-280.059,0l0,-279.708c0,-17.263 -13.987,-31.25 -31.25,-31.25c-17.262,-0 -31.25,13.987 -31.25,31.25l0,279.712l-181.787,0l-0,-631.2l45.504,0c75.146,0 136.283,61.138 136.283,136.288l0,69.358c0,17.263 13.988,31.25 31.25,31.25c17.263,0 31.25,-13.987 31.25,-31.25l0,-69.358c0,-109.617 -89.171,-198.792 -198.787,-198.792l-153.509,0c-109.625,0 -198.787,89.188 -198.787,198.792l-0,494.908l-280.058,0l-0,-814.913c28.358,-22.241 523.641,-410.7 555.6,-435.766c33.15,26 527.52,413.741 555.6,435.766l-0,814.913Z" style="fill:#0097db;fill-rule:nonzero;"/></g></g><g><g><path d="M1128.69,506.713l-124.055,-0c-17.262,-0 -31.25,13.987 -31.25,31.249c0,17.263 13.988,31.25 31.25,31.25l124.054,0c17.263,0 31.25,-13.987 31.25,-31.25c0,-17.262 -13.983,-31.249 -31.25,-31.249Z" style="fill:#0097db;fill-rule:nonzero;"/></g></g><g><g><path d="M1128.69,622.604l-124.055,0c-17.262,0 -31.25,13.988 -31.25,31.25c0,17.263 13.988,31.25 31.25,31.25l124.054,0c17.263,0 31.25,-13.987 31.25,-31.25c0.005,-17.262 -13.983,-31.25 -31.25,-31.25Z" style="fill:#0097db;fill-rule:nonzero;"/></g></g><g><g><path d="M1128.69,1087.82l-124.055,-0c-17.262,-0 -31.25,13.987 -31.25,31.25c0,17.262 13.988,31.25 31.25,31.25l124.054,-0c17.263,-0 31.25,-13.988 31.25,-31.25c0.005,-17.263 -13.983,-31.25 -31.25,-31.25Z" style="fill:#0097db;fill-rule:nonzero;"/></g></g><g><g><path d="M1128.69,1203.7l-124.055,0c-17.262,0 -31.25,13.987 -31.25,31.25c0,17.262 13.988,31.25 31.25,31.25l124.054,0c17.263,0 31.25,-13.988 31.25,-31.25c0.005,-17.258 -13.983,-31.25 -31.25,-31.25Z" style="fill:#0097db;fill-rule:nonzero;"/></g></g></svg>