<?xml version="1.0" encoding="UTF-8" standalone="no"?><!DOCTYPE svg PUBLIC "-//W3C//DTD SVG 1.1//EN" "http://www.w3.org/Graphics/SVG/1.1/DTD/svg11.dtd"><svg width="100%" height="100%" viewBox="0 0 2134 2134" version="1.1" xmlns="http://www.w3.org/2000/svg" xmlns:xlink="http://www.w3.org/1999/xlink" xml:space="preserve" xmlns:serif="http://www.serif.com/" style="fill-rule:evenodd;clip-rule:evenodd;stroke-linejoin:round;stroke-miterlimit:2;"><g><g><path d="M1970.04,1947.55l-208.734,-323.563l208.725,-323.287c7.279,-11.275 6.559,-25.946 -1.8,-36.45l-103.412,-130.025c-5.58,-7.013 -14.83,-11.817 -24.492,-11.817l-136.821,0c-17.283,0 -31.292,14.009 -31.292,31.292c0,17.279 14.005,31.292 31.292,31.292l79.4,-0l-43.508,67.446l-217.788,-0l-3.912,-6.063l-39.6,-61.383l79.396,-0c17.283,-0 31.291,-14.009 31.291,-31.292c0,-17.283 -14.004,-31.292 -31.291,-31.292l-136.825,0c-9.484,0 -18.775,4.65 -24.471,11.788l-339.05,-131.308l-0,-87.575c59.333,-46.146 100.475,-114.55 110.808,-192.584c72.342,-5.112 125.538,-63.771 125.538,-132.975c-0,-32.116 -11.588,-62.791 -32.238,-86.691l0,-115.738c0.008,-213.571 -173.742,-387.325 -387.317,-387.325c-213.575,0 -387.325,173.754 -387.325,387.325l0,118.779c-20.87,23.663 -32.225,52.775 -32.225,83.659c0,69.141 53.092,127.841 125.496,132.97c10.4,79.334 52.625,150.355 117.146,197.225l0,82.95l-373.175,144.675c-0.196,0.075 -0.391,0.155 -0.587,0.234c-6.734,2.771 -164.959,69.941 -164.959,254.725l0,651.004c0,44 35.796,79.796 79.796,79.796l563.209,-0c17.283,-0 31.291,-14.009 31.291,-31.292c0,-17.283 -14.004,-31.292 -31.292,-31.292l-332.675,0l0,-481.262c0,-17.279 -14.004,-31.292 -31.291,-31.292c-17.284,0 -31.292,14.009 -31.292,31.292l0,136.267c-5.554,-1.225 -11.296,-1.921 -17.212,-1.921l-167.955,-0l0,-321.3c0,-140.684 118.721,-193.663 125.988,-196.767l224.258,-86.942l98.529,197.471c0,0 0,0.004 0.005,0.004c14.954,29.95 53.216,39.7 80.7,20.188l126.82,-90.075l126.821,90.071c27.421,19.475 65.717,9.841 80.704,-20.192l98.525,-197.458l172.146,66.671l-62.625,78.741c-8.358,10.504 -9.079,25.171 -1.8,36.45l208.725,323.288l-64.416,99.85l-69.513,-0c-5.917,-0 -11.662,0.696 -17.212,1.921l-0,-136.267c-0,-17.279 -14.004,-31.292 -31.292,-31.292c-17.287,0 -31.292,14.009 -31.292,31.292l0,481.262l-338.633,0c-17.283,0 -31.292,14.009 -31.292,31.292c0,17.283 14.005,31.292 31.292,31.292l569.158,-0c44.771,-0 79.796,-36.513 79.8,-79.792l0,-173.975l34.213,-52.987l146.329,226.637c8.708,13.483 26.204,18.196 40.508,10.9l140.625,-71.737c16.509,-8.421 22.109,-29.284 12.079,-44.838Zm-1581.19,-161.137c9.491,-0 17.212,7.72 17.212,17.212l0,267.121l-167.95,-0c-9.492,-0 -17.212,-7.721 -17.212,-17.213l-0,-267.12l167.95,-0Zm842.079,-1196.65c-0,33.98 -24.271,63.817 -60.334,69.7l0,-139.391c35.463,5.791 60.334,35.216 60.334,69.691Zm-653.617,69.7c-36.071,-5.879 -60.337,-35.695 -60.337,-69.7c-0,-33.379 27.691,-60.554 60.337,-68.116l0,137.816Zm1.692,-201.575c-9.8,1.125 -21.079,3.759 -29.8,6.709l-0,-77.267l-0.004,0c-0,-179.062 145.679,-324.746 324.745,-324.746c179.067,0 324.746,145.679 324.746,324.746l0,75.125c-9.062,-2.75 -18.458,-4.567 -28.096,-5.433l0,-3c0,-11.504 -0.954,-17.817 -7.904,-27.95c-0.008,-0.013 -0.016,-0.025 -0.025,-0.038c-9.808,-14.266 -30.046,-34.45 -90.462,-99.391c-18.471,-19.85 -48.35,-23.492 -71.038,-8.663c-106.487,69.558 -238.983,107.033 -364.187,98.042c-26.867,-2.025 -51.384,15.762 -57.975,41.866Zm60.891,226.234l0,-205.188c132.05,7.7 273.588,-30.454 390.517,-105.329c44.617,47.917 69.663,73.967 77.608,83.708c0,271.517 0.055,218.7 -0.15,232.646c-3.125,124.517 -105.308,224.434 -230.129,224.434c-141.883,-0.005 -237.846,-109.725 -237.846,-230.271Zm81.7,596.062l-91.829,-184.037l88.654,-34.338l113.459,140.046l-110.284,78.329Zm38.021,-267.196l0,-58.404c71.784,28.85 158.767,31.454 234.963,-1.958l-0,60.621c-11.742,14.491 -105.675,130.437 -117.379,144.887l-117.584,-145.146Zm273.196,267.192l-110.417,-78.412l113.434,-140.017l88.812,34.396l-91.829,184.033Zm666.217,34.846l-68.521,106.217l-68.521,-106.217l137.042,-0Zm-343.3,-29.4l62.291,-78.308c18.413,28.541 159.555,247.32 175.246,271.641l-56.333,87.321l-181.204,-280.654Zm-7.175,518.008c-0,-9.496 7.721,-17.216 17.212,-17.216l29.15,-0l-46.362,71.866l-0,-54.65Zm185.158,249.904c-0.004,9.4 -7.721,17.213 -17.217,17.213l-167.941,-0l-0,-55.158l95.116,48.52c14.434,7.355 31.975,2.334 40.505,-10.9l49.533,-76.72l-0,77.045l0.004,0Zm-86.775,-58.004l-84.604,-43.158c340.712,-528.133 145.612,-225.713 480.658,-745.058l62.288,78.316c-22.842,35.375 -447.546,693.175 -458.342,709.9Zm367.142,0l-146.325,-226.637l56.3,-87.204l174.629,270.683l-84.604,43.158Z" style="fill:#0097db;fill-rule:nonzero;"/></g></g></svg>